<?xml version="1.0" encoding="utf-8"?>
<svg xmlns="http://www.w3.org/2000/svg" width="29.461" height="40.88" fill="#92ac26" stroke="#92ac26" viewBox="0 0 29.461 40.88"><g transform="translate(0.5 0.5)"><path d="M47.1,20.4a14.246,14.246,0,0,0-14.23,14.228c0,9.641,13.237,24.8,13.8,25.442a.571.571,0,1,0,.858-.754c-.137-.154-13.516-15.477-13.516-24.686a13.087,13.087,0,1,1,26.174,0c0,7.064-8.1,17.986-11.59,22.355a.572.572,0,1,0,.894.713c4.421-5.543,11.84-15.909,11.84-23.067A14.246,14.246,0,0,0,47.1,20.4Z" transform="translate(-32.873 -20.4)" stroke-width="1"/><path d="M54.38,40.361c.06-.053.122-.1.183-.154a.572.572,0,0,0-.714-.893q-.113.091-.222.185a.572.572,0,0,0,.752.861Z" transform="translate(-44.033 -30.606)" stroke-width="1"/><path d="M50.252,39.427a.57.57,0,0,0-.777.214A7.054,7.054,0,1,0,53.182,36.5a.572.572,0,0,0,.394,1.073,5.921,5.921,0,1,1-3.109,2.635.571.571,0,0,0-.215-.779Z" transform="translate(-41.387 -28.905)" stroke-width="1"/></g></svg>