<?xml version="1.0" encoding="utf-8"?>
<svg xmlns="http://www.w3.org/2000/svg" width="73.694" fill="#92ac26" height="72.242" viewBox="0 0 73.694 72.242"><g transform="translate(0 -5.044)"><g transform="translate(0 5.044)"><g transform="translate(0 0)"><path d="M335.76,131.063a7.418,7.418,0,1,0,7.418,7.418A7.426,7.426,0,0,0,335.76,131.063Zm0,11.957a4.539,4.539,0,1,1,4.539-4.539A4.544,4.544,0,0,1,335.76,143.02Z" transform="translate(-281.083 -112.925)" /><path d="M363.768,445.895a1.419,1.419,0,0,0-.132-.249,1.4,1.4,0,0,0-.4-.4,1.418,1.418,0,0,0-.249-.132,1.351,1.351,0,0,0-.269-.082,1.418,1.418,0,0,0-.561,0,1.351,1.351,0,0,0-.269.082,1.42,1.42,0,0,0-.249.132,1.4,1.4,0,0,0-.4.4,1.422,1.422,0,0,0-.132.249,1.35,1.35,0,0,0-.082.269,1.382,1.382,0,0,0,0,.561,1.35,1.35,0,0,0,.082.269,1.421,1.421,0,0,0,.132.249,1.379,1.379,0,0,0,.178.219c.033.033.068.064.1.094a1.341,1.341,0,0,0,.115.084,1.419,1.419,0,0,0,.249.132,1.351,1.351,0,0,0,.269.082,1.385,1.385,0,0,0,.561,0,1.351,1.351,0,0,0,.269-.082,1.418,1.418,0,0,0,.249-.132,1.381,1.381,0,0,0,.115-.084q.055-.045.1-.094a1.379,1.379,0,0,0,.178-.219,1.42,1.42,0,0,0,.132-.249,1.458,1.458,0,0,0,.083-.269,1.454,1.454,0,0,0,0-.561A1.452,1.452,0,0,0,363.768,445.895Z" transform="translate(-309.04 -381.681)" /><path d="M206.388,50.165a1.534,1.534,0,0,0-.132-.249,1.445,1.445,0,0,0-.178-.219,1.377,1.377,0,0,0-.219-.178,1.42,1.42,0,0,0-.249-.132,1.454,1.454,0,0,0-.269-.082,1.417,1.417,0,0,0-.561,0,1.5,1.5,0,0,0-.271.082,1.461,1.461,0,0,0-.248.132,1.378,1.378,0,0,0-.219.178,1.547,1.547,0,0,0-.18.219,1.523,1.523,0,0,0-.131.249,1.353,1.353,0,0,0-.082.269,1.39,1.39,0,0,0,0,.563,1.352,1.352,0,0,0,.082.269,1.523,1.523,0,0,0,.131.249,1.547,1.547,0,0,0,.18.219,1.378,1.378,0,0,0,.219.178,1.461,1.461,0,0,0,.248.132,1.5,1.5,0,0,0,.271.082,1.383,1.383,0,0,0,.561,0,1.453,1.453,0,0,0,.269-.082,1.42,1.42,0,0,0,.249-.132,1.377,1.377,0,0,0,.219-.178,1.446,1.446,0,0,0,.178-.219,1.534,1.534,0,0,0,.132-.249A1.352,1.352,0,0,0,206.47,51a1.39,1.39,0,0,0,0-.563A1.352,1.352,0,0,0,206.388,50.165Z" transform="translate(-174.312 -42.91)" /><path d="M65.652,11.417A8.29,8.29,0,0,0,57.6,5.044H12.438A12.452,12.452,0,0,0,0,17.482v45.16a8.286,8.286,0,0,0,8.042,8.272A8.29,8.29,0,0,0,16.1,77.286h49.32a8.287,8.287,0,0,0,8.278-8.278V19.688A8.286,8.286,0,0,0,65.652,11.417Zm5.163,57.592a5.405,5.405,0,0,1-5.4,5.4H16.1a5.4,5.4,0,0,1-5.4-5.4V61.373l16.513-28a2.713,2.713,0,0,1,4.719.081l7.11,13.055L49.373,65.487A1.439,1.439,0,0,0,51.9,64.11l-3.354-6.158a5.937,5.937,0,0,0,4.074-1.366l6.473-5.37a2.723,2.723,0,0,1,3.565.088l.338.31,2.879,2.639,4.939,4.528Zm0-14.133-4.939-4.528L63,48.156A5.616,5.616,0,0,0,57.256,49l-6.473,5.37a3.083,3.083,0,0,1-4.676-.9l-4.541-8.339-2.536-4.656h0l-4.574-8.4a5.591,5.591,0,0,0-9.727-.166L10.7,55.706V19.688a5.405,5.405,0,0,1,5.4-5.4H24.99a1.439,1.439,0,1,0,0-2.879H16.1a8.287,8.287,0,0,0-8.278,8.278V68.02a5.405,5.405,0,0,1-4.939-5.378V17.482a9.57,9.57,0,0,1,9.56-9.56H57.6a5.407,5.407,0,0,1,5.048,3.488H36.5a1.439,1.439,0,0,0,0,2.879H63l2.879.021a5.4,5.4,0,0,1,4.939,5.378Z" transform="translate(0 -5.044)" /></g></g></g></svg>