<?xml version="1.0" encoding="utf-8"?>
<svg xmlns="http://www.w3.org/2000/svg" width="20.665" height="20.665"  fill="#bfd952"  viewBox="0 0 20.665 20.665"><g transform="translate(0)"><g transform="translate(0)"><circle cx="1.664" cy="1.664" r="1.664" transform="translate(8.699 5.953)" /><path d="M10.333,0A10.333,10.333,0,1,0,20.666,10.333,10.333,10.333,0,0,0,10.333,0Zm-.021,4.731h.043a3.222,3.222,0,0,1,3.157,3.208c0,2.129-2.275,4.285-3.179,5.057-.06-.052-.127-.11-.2-.174l0,0c-1-.889-2.976-2.9-2.976-4.881A3.222,3.222,0,0,1,10.312,4.731ZM10.378,16c-1.906,0-3.835-.547-3.835-1.591,0-.733.95-1.22,2.175-1.446.237.238.461.448.658.623-1.334.149-2.118.571-2.118.823,0,.309,1.184.876,3.12.876s3.12-.568,3.12-.876c0-.257-.817-.689-2.2-.83.2-.177.424-.389.663-.63,1.261.22,2.251.712,2.251,1.46C14.213,15.452,12.284,16,10.378,16Z" transform="translate(-0.001)" /></g></g></svg>