<?xml version="1.0" encoding="utf-8"?>
<svg xmlns="http://www.w3.org/2000/svg" width="100" height="100" fill="#92ac26" viewBox="0 0 100 100"><path d="M7.916,41.075V65.305a1.465,1.465,0,1,0,2.93,0V41.074a8.384,8.384,0,0,0,5.44-3.516,8.361,8.361,0,0,0,13.811,0,8.361,8.361,0,0,0,13.811,0,8.361,8.361,0,0,0,13.811,0,8.361,8.361,0,0,0,13.811,0,8.361,8.361,0,0,0,13.811,0,8.384,8.384,0,0,0,5.44,3.516v5.508a1.465,1.465,0,1,0,2.93,0V41.075a8.382,8.382,0,0,0,6.906-8.239V29.087h0a1.462,1.462,0,0,0-.156-.663L87.545,2.963A5.385,5.385,0,0,0,82.719,0H18.906a5.386,5.386,0,0,0-4.826,2.963L1.168,28.424a1.462,1.462,0,0,0-.156.663h0v3.749a8.382,8.382,0,0,0,6.906,8.239Zm1.464-2.8a5.447,5.447,0,0,1-5.44-5.44V30.552H14.821v2.284A5.447,5.447,0,0,1,9.38,38.276ZM34.388,2.93,28.921,27.622H18.378L27.373,2.93Zm10.1,0-1.94,24.692H31.921L37.389,2.93Zm9.7,0,1.94,24.692H45.492L47.432,2.93Zm10.043,0L69.7,27.622H59.072L57.132,2.93Zm10.015,0,8.995,24.692H72.7L67.237,2.93ZM23.191,38.276a5.447,5.447,0,0,1-5.44-5.44V30.552H28.632v2.284A5.447,5.447,0,0,1,23.191,38.276Zm13.811,0a5.447,5.447,0,0,1-5.44-5.44V30.552H42.443v2.284A5.447,5.447,0,0,1,37,38.276Zm13.811,0a5.447,5.447,0,0,1-5.44-5.44V30.552H56.253v2.284a5.447,5.447,0,0,1-5.441,5.44Zm13.811,0a5.447,5.447,0,0,1-5.441-5.44V30.552H70.064v2.284A5.446,5.446,0,0,1,64.623,38.276Zm13.811,0a5.447,5.447,0,0,1-5.441-5.44V30.552H83.875v2.284A5.447,5.447,0,0,1,78.434,38.276Zm13.811,0a5.447,5.447,0,0,1-5.441-5.44V30.552H97.686v2.284A5.446,5.446,0,0,1,92.245,38.276ZM84.932,4.289,96.765,27.622h-10.4L77.37,2.93h5.349A2.469,2.469,0,0,1,84.932,4.289Zm-68.239,0A2.469,2.469,0,0,1,18.906,2.93h5.349L15.26,27.622H4.86Z" transform="translate(-0.813)" /><path d="M223.7,252.541a1.465,1.465,0,0,0-1.465,1.465v33.935a1.465,1.465,0,0,0,1.465,1.465h40.249a1.465,1.465,0,0,0,1.465-1.465V254.006a1.465,1.465,0,0,0-1.465-1.465Zm1.465,2.93h37.319v24.692H225.166Zm37.319,31.005H225.166v-3.384h37.319Z" transform="translate(-178.831 -203.217)" /><path d="M159.05,334.364a1.465,1.465,0,0,0-1.465,1.465v7.892a1.465,1.465,0,0,0,2.93,0v-7.892A1.465,1.465,0,0,0,159.05,334.364Z" transform="translate(-126.807 -269.059)" /><path d="M96.562,293.972H92.9V265.39a1.465,1.465,0,1,0-2.93,0v28.583H40.022V254.006a1.465,1.465,0,0,0-1.465-1.465H14.881a1.465,1.465,0,0,0-1.465,1.465v39.967H10.033V281.244a1.465,1.465,0,1,0-2.93,0v12.729H3.438A3.442,3.442,0,0,0,0,297.412v2.367a3.442,3.442,0,0,0,3.438,3.438H71.592a1.465,1.465,0,0,0,0-2.93H3.438a.508.508,0,0,1-.508-.508v-2.367a.509.509,0,0,1,.508-.51H96.562a.509.509,0,0,1,.508.51v2.367a.508.508,0,0,1-.508.508H86.17a1.465,1.465,0,0,0,0,2.93H96.562A3.441,3.441,0,0,0,100,299.779v-2.367a3.442,3.442,0,0,0-3.438-3.439Zm-80.217-38.5H37.092v38.5H16.346Z" transform="translate(0 -203.217)" /><circle cx="1.469" cy="1.469" r="1.469" transform="translate(90.03 52.948)"/><circle cx="1.469" cy="1.469" r="1.469" transform="translate(7.099 70.036)" /><circle cx="1.469" cy="1.469" r="1.469" transform="translate(77.47 97.062)" /></svg>