<?xml version="1.0" encoding="utf-8"?>
<svg xmlns="http://www.w3.org/2000/svg" width="73.236" height="100.5" fill="#92ac26" viewBox="0 0 73.236 100.5"><g transform="translate(0.25 0.25)"><path d="M136.879,55.824H125.411c10.7-11.55,11.236-27.7,10.92-34.457a2.912,2.912,0,0,0-1.884-2.595,3.055,3.055,0,0,0-3.257.658L120.6,29.864a1.465,1.465,0,0,0,2.056,2.087l10.595-10.433a.08.08,0,0,1,.075-.029.172.172,0,0,1,.085.025c.316,6.778-.257,23.551-12.159,34.31h-7.453c.129-.269.252-.54.375-.811a69.123,69.123,0,0,0,11.858-15.755,1.465,1.465,0,1,0-2.6-1.347,57.684,57.684,0,0,1-6.757,9.961,41.612,41.612,0,0,0,1.281-10.193c0-13.3-6.39-29.577-9.137-35.957a2.9,2.9,0,0,0-5.294,0c-2.747,6.38-9.137,22.656-9.137,35.957a41.623,41.623,0,0,0,1.281,10.193A57.7,57.7,0,0,1,88.9,37.911a1.465,1.465,0,1,0-2.6,1.347A69.129,69.129,0,0,0,98.161,55.013c.123.271.246.542.375.811H91.083C79.184,45.067,78.608,28.3,78.924,21.514a.173.173,0,0,1,.085-.025.083.083,0,0,1,.074.029l10.61,10.448a1.465,1.465,0,1,0,2.056-2.087L81.139,19.431a3.056,3.056,0,0,0-3.257-.658A2.912,2.912,0,0,0,76,21.367c-.316,6.755.216,22.907,10.921,34.457H75.451a5.654,5.654,0,1,0,0,11.307h1.12l6.558,28.121A6.117,6.117,0,0,0,89.111,100h34.108a6.117,6.117,0,0,0,5.982-4.748l6.558-28.121h1.12a5.654,5.654,0,1,0,0-11.307ZM106.165,2.982c2.7,6.283,8.854,22.009,8.854,34.7a39.41,39.41,0,0,1-4.5,18.146H107.63V27.341a1.465,1.465,0,0,0-2.93,0V55.824h-2.892a39.412,39.412,0,0,1-4.5-18.146c0-12.686,6.155-28.413,8.854-34.7ZM136.879,64.2H91.028a1.465,1.465,0,0,0,0,2.93H132.75l-6.4,27.455a3.2,3.2,0,0,1-3.129,2.483H89.111a3.2,3.2,0,0,1-3.129-2.483l-6.4-27.455h4.6a1.465,1.465,0,0,0,0-2.93h-8.73a2.724,2.724,0,1,1,0-5.448h61.428a2.724,2.724,0,1,1,0,5.448Z" transform="translate(-69.797 0)"  stroke="#92ac26" stroke-width="0.5"/></g></svg>