<?xml version="1.0" encoding="utf-8"?>
<svg xmlns="http://www.w3.org/2000/svg" width="93.601" height="100.048" fill="#92ac26" viewBox="0 0 93.601 100.048"><g transform="translate(0 0)"><path d="M203.825,394.293H162.781a1.477,1.477,0,0,0,0,2.953h41.044a1.477,1.477,0,1,0,0-2.953Zm0,0" transform="translate(-129.785 -317.246)" /><path d="M203.825,341.215H162.781a1.477,1.477,0,0,0,0,2.953h41.044a1.477,1.477,0,1,0,0-2.953Zm0,0" transform="translate(-129.785 -274.54)" /><path d="M161.3,289.582a1.476,1.476,0,0,0,1.476,1.477H188.9a1.477,1.477,0,1,0,0-2.953H162.781A1.476,1.476,0,0,0,161.3,289.582Zm0,0" transform="translate(-129.785 -231.808)" /><path d="M89.625,19.371l-2.662-2.89V6.145A6.161,6.161,0,0,0,80.8,0H14.751A6.161,6.161,0,0,0,8.588,6.145V17.8h-2.7A5.9,5.9,0,0,0,0,23.694V41.57a5.9,5.9,0,0,0,5.887,5.89h2.7V88.652A6.161,6.161,0,0,0,14.751,94.8h3.374a5.993,5.993,0,0,0,5.94,5.25H87.609A6,6,0,0,0,93.6,94.063V30.279c0-5.22-.157-6.757-3.975-10.908Zm.961,7.869H79.524a3.038,3.038,0,0,1-3.039-3.03l.01-12.841c1.942.144,2.46.718,4.162,2.611.282.314.591.656.934,1.029l2.823,3.064.031.033,3.007,3.265c2.345,2.549,2.968,3.62,3.134,5.869ZM11.541,6.145a3.205,3.205,0,0,1,3.21-3.192H80.8a3.205,3.205,0,0,1,3.21,3.192v7.13l-.246-.267c-.335-.363-.634-.7-.909-1-2.427-2.7-3.488-3.633-7.833-3.633H24.065a5.992,5.992,0,0,0-5.987,5.984V17.8H11.541ZM90.647,94.063a3.039,3.039,0,0,1-3.039,3.031H24.065a3.036,3.036,0,0,1-3.033-3.031v-21.4a1.477,1.477,0,0,0-2.953,0V91.844H14.751a3.2,3.2,0,0,1-3.21-3.191V47.461h6.538V65.9a1.477,1.477,0,0,0,2.953,0V47.461H28.7a1.477,1.477,0,0,0,0-2.953H5.887A2.939,2.939,0,0,1,2.953,41.57V23.694a2.939,2.939,0,0,1,2.934-2.937H44.775a2.942,2.942,0,0,1,2.939,2.937V41.57a2.942,2.942,0,0,1-2.939,2.937H35.462a1.477,1.477,0,1,0,0,2.953h9.313a5.9,5.9,0,0,0,5.893-5.89V23.694a5.9,5.9,0,0,0-5.893-5.89H21.032V14.358a3.036,3.036,0,0,1,3.033-3.031H73.542l-.01,12.883a6,6,0,0,0,5.992,5.984H90.647V94.063Zm0,0" /><path d="M54.647,134.637H51.11a1.506,1.506,0,0,0-1.108.456,1.528,1.528,0,0,0-.456,1.125v10.457a1.492,1.492,0,0,0,.447,1.1,1.508,1.508,0,0,0,2.569-1.06v-3.033h2.271a4.5,4.5,0,0,0,3.313-1.237,4.807,4.807,0,0,0-.074-6.541,4.751,4.751,0,0,0-3.426-1.266Zm1.1,5.861a1.732,1.732,0,0,1-1.266.54H52.563v-3.7H54.5a1.674,1.674,0,0,1,1.275.549,1.882,1.882,0,0,1,.511,1.33A1.751,1.751,0,0,1,55.746,140.5Zm0,0" transform="translate(-39.865 -108.328)" /><path d="M118.854,138.26A5.821,5.821,0,0,0,117,135.943a7.085,7.085,0,0,0-4.281-1.209h-3.109a1.463,1.463,0,0,0-1.1.465,1.489,1.489,0,0,0-.447,1.061v10.364a1.486,1.486,0,0,0,.428,1.1,1.656,1.656,0,0,0,1.136.409h3.351a6.278,6.278,0,0,0,4.356-1.47,6.792,6.792,0,0,0,2.178-5.265,7.44,7.44,0,0,0-.661-3.136Zm-3.416,6.057a3.257,3.257,0,0,1-2.569,1.1h-1.787v-7.945h1.62a3.536,3.536,0,0,1,2.709,1.061,4.018,4.018,0,0,1,1,2.865,4.258,4.258,0,0,1-.968,2.921Zm0,0" transform="translate(-86.949 -108.406)" /><path d="M178.116,148.261a1.442,1.442,0,0,0,1.07-.447,1.464,1.464,0,0,0,.437-1.06v-4h2.867a1.4,1.4,0,0,0,1.024-.4,1.336,1.336,0,0,0-.009-1.935,1.417,1.417,0,0,0-1.014-.4h-2.867v-2.624h3.388a1.283,1.283,0,0,0,.968-.409,1.33,1.33,0,0,0,.391-.949,1.349,1.349,0,0,0-.4-1,1.307,1.307,0,0,0-.959-.4h-4.878a1.464,1.464,0,0,0-1.1.465,1.513,1.513,0,0,0-.447,1.079v10.569a1.419,1.419,0,0,0,.466,1.061,1.492,1.492,0,0,0,1.061.447Zm0,0" transform="translate(-142.083 -108.331)" /></g></svg>