<?xml version="1.0" encoding="utf-8"?>
<svg xmlns="http://www.w3.org/2000/svg" width="20.285"  fill="#92ac26" height="20.285" viewBox="0 0 20.285 20.285"><g transform="translate(0 0)"><path d="M18.151,5.337a.845.845,0,0,0-.393,1.129,8.366,8.366,0,0,1,.837,3.676A8.452,8.452,0,1,1,10.143,1.69,8.351,8.351,0,0,1,15.39,3.514a.845.845,0,1,0,1.052-1.323,10.144,10.144,0,1,0,3.844,7.952A10.039,10.039,0,0,0,19.28,5.73a.844.844,0,0,0-1.129-.393Zm0,0" /><path d="M176.845,64a.846.846,0,0,0-.845.845v5.917a.846.846,0,0,0,.845.845h4.226a.845.845,0,1,0,0-1.69H177.69V64.845A.846.846,0,0,0,176.845,64Zm0,0" transform="translate(-166.702 -60.619)" /></g></svg>