<?xml version="1.0" encoding="utf-8"?>
<svg xmlns="http://www.w3.org/2000/svg" width="44.178" height="29.858" fill="#92ac26"  viewBox="0 0 44.178 29.858"><g transform="translate(0 0)"><g transform="translate(10.99)"><path d="M128.238,82.979h-.011a.863.863,0,0,0,0,1.726h.011a.863.863,0,0,0,0-1.726Z" transform="translate(-127.364 -82.979)"/></g><path d="M40.727,82.979H15.71a.863.863,0,0,0,0,1.726H40.727c.045,0,.089,0,.132.007l-2.411,2.411H27.193a.863.863,0,0,0,0,1.726h9.53L24.7,100.875a3.69,3.69,0,0,1-5.212,0L3.319,84.711c.044,0,.088-.007.132-.007H8.025a.863.863,0,0,0,0-1.726H3.451A3.455,3.455,0,0,0,0,86.43v22.956a3.455,3.455,0,0,0,3.451,3.451H40.727a3.455,3.455,0,0,0,3.451-3.451V86.43A3.455,3.455,0,0,0,40.727,82.979Zm-39,26.407V86.43a1.712,1.712,0,0,1,.157-.715L13.892,97.725,1.786,109.831A1.718,1.718,0,0,1,1.726,109.386Zm39,1.726H3.451a1.718,1.718,0,0,1-.445-.06L15.112,98.945l3.15,3.15a5.417,5.417,0,0,0,7.653,0l3.15-3.15,12.106,12.106A1.719,1.719,0,0,1,40.727,111.112Zm1.726-1.726a1.718,1.718,0,0,1-.06.445L30.286,97.725,42.3,85.716a1.712,1.712,0,0,1,.157.715Z" transform="translate(0 -82.979)"/><g transform="translate(22.706 4.144)"><path d="M264.026,131h-.013a.863.863,0,1,0,0,1.726h.013a.863.863,0,0,0,0-1.726Z" transform="translate(-263.15 -131)" /></g></g></svg>