<?xml version="1.0" encoding="utf-8"?>
<svg xmlns="http://www.w3.org/2000/svg" width="79.242" height="100" fill="#92ac26" viewBox="0 0 79.242 100"><path d="M47.528,81.089,34.163,68.509a8.988,8.988,0,0,0-11.45-.76l-.018.013-.059.043a.232.232,0,0,1-.182.046.172.172,0,0,1-.122-.083,43.6,43.6,0,0,1-5.975-32.592.15.15,0,0,1,.076-.105.2.2,0,0,1,.165-.017l.092.026a8.936,8.936,0,0,0,10.5-4.648l8.747-17.784A6.409,6.409,0,0,0,34.619,5.2,17.212,17.212,0,0,0,32.2,3.208,18.418,18.418,0,0,0,7.4,6.948c-.368.472-.71.966-1.039,1.465l0,.006a43.565,43.565,0,0,0-2.663,4.426l-.189.346c-.214.387-5.253,9.549-6.5,16a72.144,72.144,0,0,0,.5,29.919A62.667,62.667,0,0,0,10.932,85.834c1.659,1.936,4.731-.6,3.07-2.537A58.768,58.768,0,0,1,1.41,58.221a68.242,68.242,0,0,1-.463-28.3C2.071,24.078,6.975,15.16,7.029,15.064l.194-.355c.775-1.418,1.591-2.783,2.485-4.13l.014-.021q.4-.627.861-1.216a14.358,14.358,0,0,1,19.326-2.9,13.115,13.115,0,0,1,1.863,1.529L31.8,8a2.522,2.522,0,0,1,.522,2.938L23.572,28.718A4.912,4.912,0,0,1,17.819,31.3l-.076-.023a4.293,4.293,0,0,0-3.364.409,4.113,4.113,0,0,0-1.949,2.684,47.487,47.487,0,0,0,6.507,35.5,4.209,4.209,0,0,0,2.79,1.857,4.324,4.324,0,0,0,3.325-.774l.055-.04a4.932,4.932,0,0,1,6.28.442L44.75,83.933a4.921,4.921,0,0,1,.593,5.967c-1.875,3.208-5.762,5.358-9.381,5.961a14.337,14.337,0,0,1-10.479-2.3c-2.116-1.443-4.408,1.791-2.289,3.236A18.342,18.342,0,0,0,33.557,100a18.743,18.743,0,0,0,3.076-.256c4.805-.8,9.718-3.656,12.19-7.883l.046-.079a8.811,8.811,0,0,0-1.342-10.693Zm0,0" transform="translate(4.324 0)" /><path d="M233.123,114.4a20.4,20.4,0,0,0-20.174,23.337l-3.38,10.98a1.928,1.928,0,0,0,1.711,2.449l10.477.549A20.389,20.389,0,1,0,233.123,114.4Zm0,36.986a16.484,16.484,0,0,1-9.629-3.078,1.89,1.89,0,0,0-1-.349l-8.588-.451,2.794-9.075c.328-1.066-.174-2.538-.174-3.646a16.6,16.6,0,1,1,16.6,16.6Zm0,0" transform="translate(-174.27 -95.989)" /><path d="M310.055,240.762a1.9,1.9,0,1,0,1.891,1.978,1.916,1.916,0,0,0-1.891-1.978Zm0,0" transform="translate(-259.142 -203.01)" /><path d="M123.735,565.2a1.895,1.895,0,1,0,1.891,1.978,1.917,1.917,0,0,0-1.891-1.978Zm0,0" transform="translate(-102.049 -476.275)" /><path d="M359.559,240.762a1.9,1.9,0,1,0,1.889,1.978,1.913,1.913,0,0,0-1.889-1.978Zm0,0" transform="translate(-300.88 -203.01)" /><path d="M409.047,240.762a1.9,1.9,0,1,0,1.891,1.978,1.916,1.916,0,0,0-1.891-1.978Zm0,0" transform="translate(-342.168 -203.01)"/></svg>