<?xml version="1.0" encoding="utf-8"?>
<svg xmlns="http://www.w3.org/2000/svg" width="129.23" height="100" fill="#92ac26" viewBox="0 0 129.23 100"><g transform="translate(-3.5 -60.496)"><g transform="translate(9.288 60.496)"><path d="M147.9,104.4a1.665,1.665,0,0,0,1.663-1.663V86.329a1.667,1.667,0,0,0-.862-1.459L104.684,60.7a1.651,1.651,0,0,0-1.6,0L86.441,69.841l-.1.028a1.655,1.655,0,0,0-.663.363L85.6,70.3,59.067,84.87a1.664,1.664,0,0,0-.862,1.459v6.129H27.783a1.663,1.663,0,0,0,0,3.327H58.2v11H42.638a1.663,1.663,0,0,0,0,3.327H58.2v15.1H35.813a1.663,1.663,0,1,0,0,3.327H58.2v6.126a1.661,1.661,0,0,0,.862,1.459l44.015,24.17a1.692,1.692,0,0,0,1.6,0l44.015-24.17a1.661,1.661,0,0,0,.862-1.459V123.207a1.663,1.663,0,0,0-3.327,0v10.477l-40.688,22.343V111.482l14.162-7.774V116a1.665,1.665,0,0,0,.816,1.43,1.687,1.687,0,0,0,1.648.026l9.432-5.19a1.667,1.667,0,0,0,.862-1.459V96.7l13.767-7.559v13.593A1.665,1.665,0,0,0,147.9,104.4ZM102.22,156.026,61.531,133.683V89.141l40.688,22.34Zm1.663-47.426L63.325,86.329l14.021-7.7,40.56,22.271ZM121.363,99,80.8,76.73l6.057-3.324,40.558,22.271Zm7.777,10.825-6.106,3.36V101.88l6.106-3.352Zm1.735-16.047L90.315,71.507l13.568-7.449,40.558,22.271Z" transform="translate(-26.12 -60.496)" /></g><g transform="translate(129.403 111.31)"><path d="M498.827,260.729a1.66,1.66,0,1,1-.486-1.177A1.671,1.671,0,0,1,498.827,260.729Z" transform="translate(-495.5 -259.066)"/></g><g transform="translate(3.5 125.213)"><path d="M10.494,315.059a1.665,1.665,0,0,1-1.663,1.663H5.163a1.663,1.663,0,0,1,0-3.327H8.83A1.663,1.663,0,0,1,10.494,315.059Z" transform="translate(-3.5 -313.396)"/></g><g transform="translate(13.907 106.788)"><path d="M47.5,243.059a1.664,1.664,0,1,1-.486-1.175A1.662,1.662,0,0,1,47.5,243.059Z" transform="translate(-44.17 -241.396)" /></g></g></svg>